HIERARCHY
ROOT Hips
{
	OFFSET 0.000000 0.000000 0.000000
	CHANNELS 6 Xposition Yposition Zposition Xrotation Yrotation Zrotation
	JOINT LeftUpLeg_virtual
	{
		OFFSET 0.000000 0.000000 0.000000
		CHANNELS 3 Xrotation Yrotation Zrotation
		JOINT LeftUpLeg
		{
			OFFSET 10.205400 -3.823500 0.155100
			CHANNELS 3 Xrotation Yrotation Zrotation
			JOINT LeftLeg
			{
				OFFSET 0.708757 -12.982077 0.567790
				CHANNELS 3 Xrotation Yrotation Zrotation
				JOINT LeftFoot
				{
					OFFSET -0.708756 -10.717838 -2.184338
					CHANNELS 3 Xrotation Yrotation Zrotation
					JOINT LeftToeBase
					{
						OFFSET 0.108149 -7.191104 7.560241
						CHANNELS 3 Xrotation Yrotation Zrotation
						JOINT LeftToe_End
						{
							OFFSET 0.070230 0.081724 4.490308
							CHANNELS 3 Xrotation Yrotation Zrotation
							End Site
							{
								OFFSET 0 0 0
							}
						}
					}
				}
			}
		}
	}
	JOINT RightUpLeg_virtual
	{
		OFFSET 0.000000 0.000000 0.000000
		CHANNELS 3 Xrotation Yrotation Zrotation
		JOINT RightUpLeg
		{
			OFFSET -10.205400 -3.823500 0.005500
			CHANNELS 3 Xrotation Yrotation Zrotation
			JOINT RightLeg
			{
				OFFSET -0.708756 -12.982134 0.610632
				CHANNELS 3 Xrotation Yrotation Zrotation
				JOINT RightFoot
				{
					OFFSET 0.708754 -10.717769 -1.945823
					CHANNELS 3 Xrotation Yrotation Zrotation
					JOINT RightToeBase
					{
						OFFSET -0.108140 -7.191069 7.372968
						CHANNELS 3 Xrotation Yrotation Zrotation
						JOINT RightToe_End
						{
							OFFSET -0.070227 0.081735 4.479403
							CHANNELS 3 Xrotation Yrotation Zrotation
							End Site
							{
								OFFSET 0 0 0
							}
						}
					}
				}
			}
		}
	}
	JOINT Spine_virtual
	{
		OFFSET 0.000000 0.000000 0.000000
		CHANNELS 3 Xrotation Yrotation Zrotation
		JOINT Spine
		{
			OFFSET 0.000000 6.876099 0.125700
			CHANNELS 3 Xrotation Yrotation Zrotation
			JOINT Spine1
			{
				OFFSET 0.000000 5.730043 0.104720
				CHANNELS 3 Xrotation Yrotation Zrotation
				JOINT Spine1_split
				{
					OFFSET 0.000000 5.730043 0.104720
					CHANNELS 3 Xrotation Yrotation Zrotation
					JOINT Spine2
					{
						OFFSET 0.000000 5.730043 0.104720
						CHANNELS 3 Xrotation Yrotation Zrotation
						JOINT Neck_virtual
						{
							OFFSET 0.000000 0.000000 0.000000
							CHANNELS 3 Xrotation Yrotation Zrotation
							JOINT Neck
							{
								OFFSET 0.000000 10.314075 0.188496
								CHANNELS 3 Xrotation Yrotation Zrotation
								JOINT Head
								{
									OFFSET 0.000000 7.643700 -2.377400
									CHANNELS 3 Xrotation Yrotation Zrotation
									JOINT HeadTop_End
									{
										OFFSET 0.000000 43.788605 -13.619600
										CHANNELS 3 Xrotation Yrotation Zrotation
										End Site
										{
											OFFSET 0 0 0
										}
									}
								}
							}
						}
						JOINT LeftShoulder_virtual
						{
							OFFSET 0.000000 0.000000 0.000000
							CHANNELS 3 Xrotation Yrotation Zrotation
							JOINT LeftShoulder
							{
								OFFSET 2.196100 4.412489 0.087492
								CHANNELS 3 Xrotation Yrotation Zrotation
								JOINT LeftShoulder_split
								{
									OFFSET 2.196100 4.412489 0.087492
									CHANNELS 3 Xrotation Yrotation Zrotation
									JOINT LeftArm
									{
										OFFSET 8.771219 -2.981674 -0.026999
										CHANNELS 3 Xrotation Yrotation Zrotation
										JOINT LeftForeArm
										{
											OFFSET 8.512804 0.000000 -0.000000
											CHANNELS 3 Xrotation Yrotation Zrotation
											JOINT LeftHand
											{
												OFFSET 18.484802 0.000000 -0.000000
												CHANNELS 3 Xrotation Yrotation Zrotation
												End Site
												{
													OFFSET 0 0 0
												}
											}
										}
									}
								}
							}
						}
						JOINT RightShoulder_virtual
						{
							OFFSET 0.000000 0.000000 0.000000
							CHANNELS 3 Xrotation Yrotation Zrotation
							JOINT RightShoulder
							{
								OFFSET -2.196100 4.412496 0.070690
								CHANNELS 3 Xrotation Yrotation Zrotation
								JOINT RightShoulder_split
								{
									OFFSET -2.196100 4.412496 0.070690
									CHANNELS 3 Xrotation Yrotation Zrotation
									JOINT RightArm
									{
										OFFSET -8.771282 -2.981682 -0.094208
										CHANNELS 3 Xrotation Yrotation Zrotation
										JOINT RightForeArm
										{
											OFFSET -8.494598 0.000000 0.000000
											CHANNELS 3 Xrotation Yrotation Zrotation
											JOINT RightHand
											{
												OFFSET -18.483803 0.000000 0.000001
												CHANNELS 3 Xrotation Yrotation Zrotation
												End Site
												{
													OFFSET 0 0 0
												}
											}
										}
									}
								}
							}
						}
					}
				}
			}
		}
	}
}
MOTION
Frames: 8
Frame Time: 0.03333333
1.956065 27.955740 -1.271610 0.000000 0.000000 0.000000 2.265541 -53.732842 4.309223 -41.160943 2.102609 24.488725 47.298394 -2.570758 1.704420 -10.190575 -8.657640 -22.629803 0.280135 0.472991 0.657060 0.000000 0.000000 0.000000 0.817920 -54.122129 4.000392 -28.817234 -23.861486 -43.608319 44.977318 11.848070 -3.153907 -24.870715 -7.300511 19.041437 4.200658 0.713132 -0.309565 0.000000 0.000000 0.000000 4.063049 -50.809436 5.074196 9.325554 10.806452 -1.964940 3.558738 4.718561 -1.442241 0.341145 -0.060092 -0.080913 0.000000 0.000000 0.000000 3.828832 4.863151 -1.139955 -2.824668 2.967531 3.066009 -5.131090 40.454893 -6.769926 0.000000 0.000000 0.000000 4.349129 4.744389 -1.905486 0.386610 -8.757689 -15.872562 -6.102080 2.149428 1.274275 -11.561429 -39.277016 -19.591880 -6.281964 -66.330180 -3.122036 0.000000 0.000000 0.000000 5.603129 5.245559 -1.487813 -4.872184 20.625518 -19.456465 1.944942 -5.127838 -4.294122 -32.089079 28.038956 30.160582 -127.552294 88.181239 126.695351 0.000000 0.000000 0.000000 
2.151822 28.134539 -1.327923 0.000000 0.000000 0.000000 2.058505 -54.896150 4.341471 -40.891987 3.157370 24.773982 46.341570 -2.991410 1.630605 -9.503694 -8.004106 -22.923812 0.211640 0.498110 0.413740 0.000000 0.000000 0.000000 0.857939 -55.097152 3.987962 -29.356556 -23.491874 -42.901330 44.035377 11.499599 -2.926399 -23.176058 -6.714655 18.329140 4.657480 0.706754 -0.316421 0.000000 0.000000 0.000000 3.490302 -51.748648 4.664100 10.871263 10.954811 -2.455201 3.645885 4.468023 -1.591699 0.268981 0.066789 -0.187499 0.000000 0.000000 0.000000 3.630327 4.678809 -1.167277 -2.733307 2.799283 3.466286 -8.085362 39.894930 -6.154560 0.000000 0.000000 0.000000 4.827815 4.307785 -1.879979 0.744499 -8.971518 -15.880098 -7.338105 2.367594 0.973191 -20.716495 -38.301556 -25.461077 -4.825700 -67.334341 -1.908061 0.000000 0.000000 0.000000 5.784270 5.053044 -1.271658 -1.703800 20.724812 -14.230831 1.854989 -4.533631 -3.973137 -22.553773 32.404869 25.331397 -170.255210 84.295244 169.476569 0.000000 0.000000 0.000000 
2.306156 28.377110 -1.356270 0.000000 0.000000 0.000000 2.011948 -56.875439 4.228989 -40.109661 4.744928 25.503505 44.942600 -3.650152 1.612457 -9.540315 -6.964010 -23.238342 -0.003545 0.474497 0.262945 0.000000 0.000000 0.000000 0.901302 -56.986085 3.749571 -29.591866 -23.183921 -41.594144 42.051887 11.187984 -2.647442 -21.190443 -6.008480 17.869011 4.844038 0.625580 -0.346974 0.000000 0.000000 0.000000 2.846205 -53.627346 3.999120 12.393761 10.665773 -3.131937 3.683827 4.057386 -1.821645 0.445884 0.041845 -0.108027 0.000000 0.000000 0.000000 3.486600 4.249573 -1.358592 -2.923308 2.566934 3.816533 -10.331332 40.220180 -5.506417 0.000000 0.000000 0.000000 5.171803 3.731207 -1.926709 1.138915 -8.743318 -14.959291 -8.331482 2.479681 0.699551 -29.627192 -36.348156 -29.846277 -2.572170 -68.233255 -0.012636 0.000000 0.000000 0.000000 5.780509 4.631769 -1.331235 0.702135 20.199378 -10.327827 2.030419 -3.018804 -3.142425 -14.475094 34.545410 18.701888 -174.674329 81.424372 173.751748 0.000000 0.000000 0.000000 
2.421019 28.668774 -1.360769 0.000000 0.000000 0.000000 1.922219 -59.723973 3.826283 -38.768929 6.674429 26.679276 43.433139 -4.470696 1.613006 -10.071589 -5.568072 -23.499042 -0.379588 0.403731 0.181192 0.000000 0.000000 0.000000 0.906919 -59.720497 3.255123 -29.486091 -22.923315 -39.683409 39.103899 10.968894 -2.338283 -19.296478 -5.138799 17.572820 4.959070 0.470501 -0.366297 0.000000 0.000000 0.000000 2.049317 -56.263854 3.012486 13.647926 10.082109 -3.977022 3.716523 3.633131 -2.084825 0.550075 0.181073 0.015612 0.000000 0.000000 0.000000 3.418479 3.716439 -1.622048 -3.404698 2.240448 4.177975 -11.579013 41.325581 -4.794166 0.000000 0.000000 0.000000 5.350320 3.171881 -2.009061 1.473615 -8.349425 -13.202645 -9.134815 2.371519 0.527673 -36.845654 -33.659008 -31.136418 -0.001357 -69.853219 2.145440 0.000000 0.000000 0.000000 5.664701 4.125401 -1.597724 2.430527 19.450779 -8.009425 2.030468 -1.287657 -1.802749 -9.874562 37.481032 12.187305 -173.503689 82.056260 172.202197 0.000000 0.000000 0.000000 
2.514913 28.984518 -1.350676 0.000000 0.000000 0.000000 1.922047 -63.480188 3.270407 -36.995894 8.772744 28.198163 42.127613 -5.297853 1.607540 -10.891404 -3.743531 -23.457296 -0.630984 0.294964 0.052564 0.000000 0.000000 0.000000 0.823403 -63.245086 2.516557 -29.018834 -22.645704 -37.245199 35.465802 10.803539 -1.995937 -17.796329 -4.063770 17.200624 5.186303 0.278714 -0.348472 0.000000 0.000000 0.000000 1.113924 -59.665322 1.733878 14.439315 9.295571 -4.937337 3.789878 3.288039 -2.292943 0.906725 0.288341 0.064474 0.000000 0.000000 0.000000 3.462035 3.206141 -1.855640 -4.162198 2.038805 4.479945 -11.838336 43.247464 -4.011003 0.000000 0.000000 0.000000 5.392104 2.744221 -2.083892 1.705328 -7.943376 -10.872603 -9.532465 2.183408 0.782833 -41.191648 -30.567012 -28.831738 2.078464 -72.519124 3.909176 0.000000 0.000000 0.000000 5.504123 3.637423 -1.916836 3.463156 18.464727 -7.256684 1.364434 -0.291677 0.068809 -9.337333 43.298997 7.005052 -165.921196 84.990858 164.088178 0.000000 0.000000 0.000000 
2.576811 29.308619 -1.349201 0.000000 0.000000 0.000000 1.888730 -67.918527 2.588429 -34.889071 11.009841 29.963616 40.995782 -6.012239 1.565296 -11.813132 -1.606185 -23.077596 -0.682129 0.172514 -0.145982 0.000000 0.000000 0.000000 0.639043 -67.266367 1.640146 -28.269579 -22.220842 -34.505262 31.642030 10.694204 -1.680706 -16.681528 -2.795957 16.739281 5.588432 0.088988 -0.298982 0.000000 0.000000 0.000000 -0.074675 -63.601970 0.184847 14.602611 8.317401 -5.950762 3.881810 3.030946 -2.371837 1.251352 -0.206684 0.009394 0.000000 0.000000 0.000000 3.621351 2.733052 -1.920482 -5.064985 2.191010 4.658422 -11.064395 46.057455 -3.419087 0.000000 0.000000 0.000000 5.309026 2.479059 -2.073586 1.859376 -7.706103 -8.216937 -9.628418 1.992660 1.523090 -42.781737 -26.481347 -23.792366 3.175955 -75.253317 4.843991 0.000000 0.000000 0.000000 5.356825 3.188276 -2.137765 3.764083 17.023951 -7.707968 0.602127 -0.093606 1.791920 -13.448808 51.313538 5.181357 -143.996862 87.389702 141.725469 0.000000 0.000000 0.000000 
2.607130 29.625837 -1.331837 0.000000 0.000000 0.000000 1.753686 -72.651131 1.902032 -32.614734 13.460431 31.715734 39.819921 -6.563472 1.434692 -12.592239 0.622483 -22.569482 -0.649371 0.044520 -0.331471 0.000000 0.000000 0.000000 0.375421 -71.648882 0.775306 -27.328393 -21.604032 -31.763013 28.072943 10.720735 -1.460128 -15.653829 -1.285802 16.434511 6.045521 -0.047265 -0.211144 0.000000 0.000000 0.000000 -1.406471 -67.887832 -1.495812 14.075434 7.197524 -6.916953 3.950181 2.809720 -2.320077 1.522987 -0.516560 0.231726 0.000000 0.000000 0.000000 3.896283 2.295681 -1.807075 -6.027420 2.807770 4.714947 -9.181806 49.882955 -3.384793 0.000000 0.000000 0.000000 5.101076 2.301896 -1.990727 1.955364 -7.694047 -5.482951 -9.382848 1.572753 2.532106 -42.307049 -20.934834 -17.537586 2.478558 -76.724157 4.226874 0.000000 0.000000 0.000000 5.181365 2.740180 -2.181638 3.545875 15.255127 -8.901477 -0.117441 -0.463699 3.170188 -23.111233 59.270899 9.334274 -120.815268 88.064067 118.530652 0.000000 0.000000 0.000000 
2.617147 29.928154 -1.292454 0.000000 0.000000 0.000000 2.058400 -77.298979 1.793048 -30.457565 16.112532 33.185075 38.391223 -6.970336 1.229199 -13.054738 2.682146 -22.026964 -0.679367 -0.100351 -0.423190 0.000000 0.000000 0.000000 0.233771 -76.084783 0.204985 -26.264926 -20.760186 -29.251853 25.015344 10.917088 -1.379212 -14.385746 0.393760 16.487710 6.143102 -0.122625 -0.098476 0.000000 0.000000 0.000000 -2.521263 -72.251087 -2.843464 12.992456 5.916072 -7.682438 3.993692 2.577150 -2.211785 2.023113 -0.995435 0.565469 0.000000 0.000000 0.000000 4.193076 1.877547 -1.625404 -6.967224 3.934521 4.753280 -6.118075 54.766188 -4.326965 0.000000 0.000000 0.000000 4.873816 2.137505 -1.910340 2.116452 -7.765094 -2.702131 -8.728318 0.859669 3.471315 -40.769956 -14.334632 -11.879139 0.351454 -75.525691 2.382021 0.000000 0.000000 0.000000 4.991694 2.289584 -2.099969 2.866604 13.200247 -10.397470 -0.605007 -1.119181 4.012798 -37.746726 64.403220 20.344168 -133.433688 88.032177 131.646787 0.000000 0.000000 0.000000 
